Coordinates
version=1
nRows=13
nColumns=63
inDegrees=yes

Units are S.I. units (second, meters, Newtons, ...)
If the header above contains a line with 'inDegrees', this indicates whether rotational values are in degrees (yes) or radians (no).

endheader
time	pelvis_tilt	pelvis_list	pelvis_rotation	pelvis_tx	pelvis_ty	pelvis_tz	hip_flexion_r	hip_adduction_r	hip_rotation_r	knee_angle_r	knee_angle_r_beta	ankle_angle_r	subtalar_angle_r	mtp_angle_r	hip_flexion_l	hip_adduction_l	hip_rotation_l	knee_angle_l	knee_angle_l_beta	ankle_angle_l	subtalar_angle_l	mtp_angle_l	L5_S1_Flex_Ext	L5_S1_Lat_Bending	L5_S1_axial_rotation	L4_L5_Flex_Ext	L4_L5_Lat_Bending	L4_L5_axial_rotation	L3_L4_Flex_Ext	L3_L4_Lat_Bending	L3_L4_axial_rotation	L2_L3_Flex_Ext	L2_L3_Lat_Bending	L2_L3_axial_rotation	L1_L2_Flex_Ext	L1_L2_Lat_Bending	L1_L2_axial_rotation	L1_T12_Flex_Ext	L1_T12_Lat_Bending	L1_T12_axial_rotation	Abs_r3	Abs_r2	Abs_r1	Abs_t1	Abs_t2	neck_flexion	neck_bending	neck_rotation	arm_flex_r	arm_add_r	arm_rot_r	elbow_flex_r	pro_sup_r	wrist_flex_r	wrist_dev_r	arm_flex_l	arm_add_l	arm_rot_l	elbow_flex_l	pro_sup_l	wrist_flex_l	wrist_dev_l
1.766667	-3.477605	-1.044956	98.562941	0.055843	0.961490	0.457849	-8.302311	-0.949399	-9.185096	4.704640	0.082111	28.100224	11.711742	0.000000	-8.849622	1.206633	-1.329387	0.238461	0.004162	27.002203	8.664978	0.000000	-0.174468	0.100382	0.615307	-0.324005	0.133509	0.653764	-0.286634	0.244070	0.653764	-0.199400	0.244070	0.538394	-0.162011	0.204700	0.499937	-0.099691	0.155492	0.461480	-1.246210	1.135545	3.422153	0.000000	0.000000	8.781765	-2.667774	-4.805883	5.649594	-8.582922	137.841216	0.682709	1.112377	-5.127703	-16.049555	6.376366	-16.630461	72.250504	27.551659	86.532201	-10.414809	2.077691
1.783333	-3.600887	-1.021309	98.568509	0.055953	0.961600	0.457887	-8.365480	-1.067566	-8.980671	4.617761	0.080595	28.092068	11.591508	0.000000	-8.863717	1.338658	-1.586113	0.238508	0.004163	27.052663	8.993017	0.000000	-0.175341	0.084588	0.616996	-0.325626	0.112503	0.655558	-0.288068	0.205668	0.655558	-0.200397	0.205668	0.539871	-0.162822	0.172493	0.501309	-0.100190	0.131027	0.462747	-1.252444	0.956881	3.431545	0.000000	0.000000	8.630819	-2.527135	-4.744975	5.719188	-8.443540	136.841493	0.698280	1.315661	-4.862302	-16.537241	6.585668	-16.618708	73.087761	27.476625	86.788801	-10.284447	2.115815
1.800000	-3.722823	-0.985874	98.530701	0.056087	0.961716	0.457920	-8.438044	-1.198283	-8.844127	4.545735	0.079338	28.058987	11.572847	0.000000	-8.894369	1.478326	-1.846928	0.238151	0.004157	27.100806	9.274611	0.000000	-0.177459	0.070110	0.620911	-0.329559	0.093246	0.659718	-0.291547	0.170465	0.659718	-0.202818	0.170465	0.543297	-0.164788	0.142968	0.504490	-0.101400	0.108600	0.465683	-1.267570	0.793095	3.453322	0.000000	0.000000	8.471818	-2.372001	-4.596552	5.800909	-8.316744	136.317891	0.713870	1.500677	-4.707022	-16.868221	6.771028	-16.582921	73.887982	27.366535	87.004979	-10.075974	2.115202
1.816667	-3.840416	-0.945558	98.472059	0.056208	0.961826	0.457937	-8.514852	-1.331763	-8.734684	4.487684	0.078325	28.005736	11.569189	0.000000	-8.934329	1.618486	-2.088615	0.237325	0.004142	27.147197	9.514565	0.000000	-0.179488	0.057037	0.622039	-0.333328	0.075859	0.660916	-0.294882	0.138679	0.660916	-0.205137	0.138679	0.544284	-0.166673	0.116310	0.505406	-0.102560	0.088350	0.466529	-1.282068	0.645212	3.459593	0.000000	0.000000	8.334578	-2.224949	-4.372119	5.891597	-8.198807	136.289325	0.725710	1.690183	-4.838877	-17.009309	6.933719	-16.527004	74.687901	27.247161	87.259400	-9.867893	2.128892
1.833333	-3.935345	-0.897014	98.379669	0.056336	0.961929	0.457962	-8.592927	-1.448874	-8.626228	4.440343	0.077499	27.935282	11.581103	0.000000	-8.985416	1.741603	-2.299238	0.236314	0.004124	27.193085	9.668975	0.000000	-0.181962	0.047232	0.628164	-0.337921	0.062819	0.667424	-0.298945	0.114840	0.667424	-0.207964	0.114840	0.549644	-0.168970	0.096316	0.510383	-0.103973	0.073163	0.471123	-1.299735	0.534299	3.493660	0.000000	0.000000	8.241288	-2.106254	-4.132894	5.978151	-8.107669	136.563803	0.733415	1.746973	-5.118781	-17.108498	7.110508	-16.451961	75.564805	27.122330	87.535001	-9.671266	2.147750
1.850000	-4.012584	-0.841574	98.272772	0.056449	0.962025	0.457988	-8.672161	-1.551272	-8.540537	4.404984	0.076881	27.867846	11.619383	0.000000	-9.047337	1.849382	-2.445983	0.234946	0.004101	27.232751	9.713913	0.000000	-0.184361	0.039991	0.636438	-0.342377	0.053188	0.676215	-0.302887	0.097233	0.676215	-0.210707	0.097233	0.556883	-0.171198	0.081549	0.517106	-0.105344	0.061945	0.477328	-1.316874	0.452382	3.539675	0.000000	0.000000	8.182848	-2.034434	-3.901657	6.054592	-8.036163	136.988801	0.738135	1.810267	-5.497331	-17.157414	7.296467	-16.366029	76.506995	27.005067	87.808855	-9.497067	2.184503
1.866667	-4.066404	-0.780243	98.165096	0.056526	0.962109	0.458031	-8.749321	-1.631366	-8.492076	4.384980	0.076532	27.823765	11.697034	0.000000	-9.116799	1.933013	-2.557585	0.233523	0.004076	27.277391	9.701371	0.000000	-0.186413	0.035761	0.643239	-0.346187	0.047562	0.683442	-0.306258	0.086950	0.683442	-0.213051	0.086950	0.562834	-0.173103	0.072924	0.522632	-0.106516	0.055394	0.482429	-1.331528	0.404537	3.577504	0.000000	0.000000	8.156458	-1.996235	-3.668925	6.130555	-7.983454	137.754435	0.736249	1.798046	-5.916530	-17.096140	7.481192	-16.268128	77.488367	26.897384	88.060289	-9.368366	2.224026
1.883333	-4.092758	-0.711612	98.069781	0.056541	0.962180	0.458094	-8.829458	-1.677907	-8.387576	4.372209	0.076309	27.787360	11.674363	0.000000	-9.193605	1.986992	-2.610231	0.232158	0.004052	27.330554	9.609131	0.000000	-0.188605	0.035172	0.650190	-0.350258	0.046779	0.690827	-0.309859	0.085517	0.690827	-0.215557	0.085517	0.568917	-0.175139	0.071723	0.528280	-0.107769	0.054482	0.487643	-1.347186	0.397874	3.616164	0.000000	0.000000	8.164456	-1.992025	-3.456545	6.184596	-7.954274	138.580302	0.734004	1.883327	-6.327218	-16.968183	7.670702	-16.148026	78.523482	26.790179	88.277725	-9.327483	2.232269
1.900000	-4.090506	-0.640862	98.004008	0.056469	0.962229	0.458198	-8.902718	-1.691068	-8.290559	4.378715	0.076423	27.777819	11.613311	0.000000	-9.269469	2.007360	-2.623448	0.231081	0.004033	27.395556	9.492696	0.000000	-0.190650	0.038354	0.651038	-0.354056	0.051010	0.691728	-0.313219	0.093253	0.691728	-0.217894	0.093253	0.569658	-0.177037	0.078211	0.528968	-0.108937	0.059410	0.488279	-1.361793	0.433864	3.620879	0.000000	0.000000	8.201616	-2.030328	-3.254497	6.234799	-7.947793	139.729585	0.727696	1.959338	-6.663509	-16.704245	7.847593	-16.020402	79.526226	26.704665	88.424073	-9.337702	2.240941
1.916667	-4.056079	-0.569602	97.976145	0.056296	0.962254	0.458344	-8.969942	-1.662840	-8.166104	4.396471	0.076733	27.780887	11.461413	0.000000	-9.341268	1.989362	-2.562745	0.230278	0.004019	27.459854	9.316660	0.000000	-0.192823	0.045543	0.645548	-0.358092	0.060572	0.685895	-0.316789	0.110734	0.685895	-0.220378	0.110734	0.564855	-0.179056	0.092872	0.524508	-0.110179	0.070546	0.484161	-1.377318	0.515193	3.590345	0.000000	0.000000	8.273357	-2.097587	-3.082090	6.271652	-7.964299	141.110453	0.719316	2.137874	-6.962789	-16.319284	8.019667	-15.883907	80.510367	26.642731	88.512319	-9.395954	2.258181
1.933333	-3.989798	-0.504304	97.993921	0.056007	0.962254	0.458538	-9.023627	-1.597099	-8.069272	4.426274	0.077253	27.797125	11.286043	0.000000	-9.400231	1.932847	-2.508743	0.230242	0.004018	27.527209	9.204635	0.000000	-0.194530	0.056880	0.630434	-0.361261	0.075650	0.669836	-0.319593	0.138298	0.669836	-0.222328	0.138298	0.551630	-0.180640	0.115990	0.512228	-0.111154	0.088107	0.472826	-1.389505	0.643439	3.506285	0.000000	0.000000	8.374289	-2.199284	-2.923609	6.302566	-8.001974	142.813713	0.706308	2.326894	-7.186849	-15.786682	8.167988	-15.741350	81.411087	26.602988	88.547092	-9.506680	2.282738
1.950000	-3.897811	-0.447021	98.069412	0.055604	0.962226	0.458797	-9.059438	-1.497511	-8.004567	4.472832	0.078066	27.825158	11.069256	0.000000	-9.443115	1.841626	-2.354350	0.230305	0.004020	27.568430	9.036660	0.000000	-0.196646	0.071450	0.603195	-0.365191	0.095029	0.640895	-0.323069	0.173724	0.640895	-0.224746	0.173724	0.527796	-0.182605	0.145702	0.490096	-0.112363	0.110677	0.452397	-1.404620	0.808261	3.354792	0.000000	0.000000	8.518115	-2.341720	-2.790638	6.331590	-8.057513	144.708047	0.690620	2.569945	-7.284156	-15.160430	8.279589	-15.617510	82.153005	26.616176	88.575280	-9.673980	2.339182
1.966667	-3.779172	-0.407928	98.197782	0.055074	0.962164	0.459125	-9.054810	-1.375514	-8.084788	4.556810	0.079531	27.885985	10.975640	0.000000	-9.458027	1.717883	-2.266041	0.231697	0.004044	27.602850	9.028521	0.000000	-0.197264	0.089057	0.567482	-0.366340	0.118446	0.602949	-0.324086	0.216534	0.602949	-0.225453	0.216534	0.496546	-0.183180	0.181605	0.461079	-0.112717	0.137950	0.425611	-1.409040	1.007433	3.156163	0.000000	0.000000	8.690208	-2.511227	-2.721454	6.349497	-8.132417	146.748079	0.670979	2.800947	-7.249991	-14.440594	8.355654	-15.501084	82.728964	26.670889	88.625578	-9.861874	2.468697
